<svg width="28" height="28" viewBox="0 0 28 28" fill="none" xmlns="http://www.w3.org/2000/svg">
<path d="M17.3017 13.1716L12.3551 8.22498C12.2466 8.11563 12.1176 8.02884 11.9754 7.96961C11.8332 7.91038 11.6807 7.87988 11.5267 7.87988C11.3727 7.87988 11.2202 7.91038 11.078 7.96961C10.9359 8.02884 10.8068 8.11563 10.6984 8.22498C10.4811 8.44357 10.3591 8.73926 10.3591 9.04748C10.3591 9.3557 10.4811 9.65139 10.6984 9.86998L14.8284 14L10.6984 18.13C10.4811 18.3486 10.3591 18.6443 10.3591 18.9525C10.3591 19.2607 10.4811 19.5564 10.6984 19.775C10.8074 19.8831 10.9367 19.9687 11.0788 20.0267C11.221 20.0848 11.3732 20.1142 11.5267 20.1133C11.6803 20.1142 11.8325 20.0848 11.9746 20.0267C12.1168 19.9687 12.246 19.8831 12.3551 19.775L17.3017 14.8283C17.4111 14.7199 17.4979 14.5908 17.5571 14.4487C17.6163 14.3065 17.6468 14.154 17.6468 14C17.6468 13.846 17.6163 13.6935 17.5571 13.5513C17.4979 13.4091 17.4111 13.2801 17.3017 13.1716Z" fill="#676779"/>
</svg>
