<svg width="25" height="24" viewBox="0 0 25 24" fill="none" xmlns="http://www.w3.org/2000/svg">
<path d="M22.1699 6.62C22.0685 6.37565 21.8743 6.18147 21.6299 6.08C21.5097 6.02876 21.3806 6.00158 21.2499 6H16.2499C15.9847 6 15.7304 6.10536 15.5428 6.29289C15.3553 6.48043 15.2499 6.73478 15.2499 7C15.2499 7.26522 15.3553 7.51957 15.5428 7.70711C15.7304 7.89464 15.9847 8 16.2499 8H18.8399L13.2499 13.59L9.95994 10.29C9.86698 10.1963 9.75637 10.1219 9.63452 10.0711C9.51266 10.0203 9.38195 9.9942 9.24994 9.9942C9.11793 9.9942 8.98722 10.0203 8.86536 10.0711C8.7435 10.1219 8.6329 10.1963 8.53994 10.29L2.53994 16.29C2.44621 16.383 2.37182 16.4936 2.32105 16.6154C2.27028 16.7373 2.24414 16.868 2.24414 17C2.24414 17.132 2.27028 17.2627 2.32105 17.3846C2.37182 17.5064 2.44621 17.617 2.53994 17.71C2.6329 17.8037 2.7435 17.8781 2.86536 17.9289C2.98722 17.9797 3.11793 18.0058 3.24994 18.0058C3.38195 18.0058 3.51266 17.9797 3.63452 17.9289C3.75637 17.8781 3.86698 17.8037 3.95994 17.71L9.24994 12.41L12.5399 15.71C12.6329 15.8037 12.7435 15.8781 12.8654 15.9289C12.9872 15.9797 13.1179 16.0058 13.2499 16.0058C13.382 16.0058 13.5127 15.9797 13.6345 15.9289C13.7564 15.8781 13.867 15.8037 13.9599 15.71L20.2499 9.41V12C20.2499 12.2652 20.3553 12.5196 20.5428 12.7071C20.7304 12.8946 20.9847 13 21.2499 13C21.5152 13 21.7695 12.8946 21.957 12.7071C22.1446 12.5196 22.2499 12.2652 22.2499 12V7C22.2484 6.86932 22.2212 6.74022 22.1699 6.62Z" fill="#5CC38A"/>
</svg>
