<svg width="20" height="20" viewBox="0 0 20 20" fill="none" xmlns="http://www.w3.org/2000/svg">
<path d="M16.9124 9.56417C16.8569 9.4209 16.7736 9.29001 16.6673 9.17901L10.8316 3.34325C10.7228 3.23443 10.5936 3.1481 10.4514 3.08921C10.3092 3.03031 10.1568 3 10.0029 3C9.6921 3 9.39401 3.12347 9.17423 3.34325C9.06541 3.45207 8.97909 3.58127 8.92019 3.72345C8.8613 3.86564 8.83098 4.01803 8.83098 4.17193C8.83098 4.48274 8.95445 4.78083 9.17423 5.00061L13.0258 8.84053H4.16715C3.8576 8.84053 3.56073 8.9635 3.34185 9.18239C3.12297 9.40127 3 9.69814 3 10.0077C3 10.3172 3.12297 10.6141 3.34185 10.833C3.56073 11.0519 3.8576 11.1748 4.16715 11.1748H13.0258L9.17423 15.0148C9.06484 15.1233 8.97801 15.2524 8.91875 15.3946C8.8595 15.5368 8.82899 15.6894 8.82899 15.8434C8.82899 15.9975 8.8595 16.1501 8.91875 16.2923C8.97801 16.4345 9.06484 16.5636 9.17423 16.6721C9.28273 16.7815 9.41182 16.8683 9.55405 16.9276C9.69628 16.9869 9.84883 17.0174 10.0029 17.0174C10.157 17.0174 10.3095 16.9869 10.4518 16.9276C10.594 16.8683 10.7231 16.7815 10.8316 16.6721L16.6673 10.8364C16.7736 10.7254 16.8569 10.5945 16.9124 10.4512C17.0292 10.167 17.0292 9.84832 16.9124 9.56417Z" fill="#4D4DFF"/>
</svg>
