<svg width="16" height="16" viewBox="0 0 16 16" fill="none" xmlns="http://www.w3.org/2000/svg">
<path d="M7.52659 10.1934C7.49792 10.2251 7.4712 10.2584 7.44659 10.2934C7.42136 10.3305 7.40118 10.3709 7.38659 10.4134C7.36737 10.4512 7.35389 10.4916 7.34659 10.5334C7.34332 10.5778 7.34332 10.6223 7.34659 10.6667C7.34434 10.7542 7.3626 10.8409 7.39992 10.92C7.42986 11.0028 7.47763 11.0779 7.53984 11.1401C7.60206 11.2023 7.67719 11.2501 7.75992 11.28C7.83972 11.3153 7.92601 11.3335 8.01326 11.3335C8.1005 11.3335 8.18679 11.3153 8.26659 11.28C8.34932 11.2501 8.42445 11.2023 8.48666 11.1401C8.54888 11.0779 8.59665 11.0028 8.62659 10.92C8.65619 10.839 8.66978 10.7529 8.66659 10.6667C8.6671 10.579 8.65028 10.492 8.6171 10.4108C8.58393 10.3295 8.53504 10.2557 8.47325 10.1934C8.41128 10.1309 8.33755 10.0813 8.25631 10.0474C8.17507 10.0136 8.08793 9.99618 7.99992 9.99618C7.91191 9.99618 7.82478 10.0136 7.74354 10.0474C7.6623 10.0813 7.58856 10.1309 7.52659 10.1934ZM7.99992 1.33337C6.68138 1.33337 5.39245 1.72437 4.29612 2.45691C3.19979 3.18945 2.34531 4.23064 1.84072 5.44882C1.33614 6.66699 1.20412 8.00744 1.46135 9.30064C1.71859 10.5938 2.35353 11.7817 3.28588 12.7141C4.21823 13.6464 5.40611 14.2814 6.69932 14.5386C7.99253 14.7958 9.33297 14.6638 10.5511 14.1592C11.7693 13.6547 12.8105 12.8002 13.5431 11.7038C14.2756 10.6075 14.6666 9.31858 14.6666 8.00004C14.6666 7.12456 14.4941 6.25766 14.1591 5.44882C13.8241 4.63998 13.333 3.90505 12.714 3.286C12.0949 2.66694 11.36 2.17588 10.5511 1.84084C9.74231 1.50581 8.8754 1.33337 7.99992 1.33337ZM7.99992 13.3334C6.94509 13.3334 5.91394 13.0206 5.03688 12.4345C4.15982 11.8485 3.47623 11.0156 3.07256 10.041C2.6689 9.06648 2.56328 7.99412 2.76907 6.95956C2.97485 5.92499 3.48281 4.97468 4.22869 4.2288C4.97457 3.48292 5.92487 2.97497 6.95944 2.76919C7.99401 2.5634 9.06636 2.66902 10.0409 3.07268C11.0154 3.47635 11.8484 4.15994 12.4344 5.037C13.0205 5.91406 13.3333 6.94521 13.3333 8.00004C13.3333 9.41453 12.7714 10.7711 11.7712 11.7713C10.771 12.7715 9.41441 13.3334 7.99992 13.3334ZM7.99992 4.66671C7.64863 4.66648 7.30348 4.75879 6.99919 4.93434C6.69491 5.10988 6.44223 5.36248 6.26659 5.66671C6.21835 5.74259 6.18596 5.82744 6.17137 5.91616C6.15678 6.00488 6.16028 6.09563 6.18167 6.18297C6.20306 6.2703 6.2419 6.3524 6.29584 6.42433C6.34979 6.49626 6.41773 6.55654 6.49557 6.60154C6.57341 6.64653 6.65955 6.67532 6.74881 6.68616C6.83807 6.697 6.92859 6.68968 7.01495 6.66463C7.1013 6.63957 7.18169 6.59731 7.25129 6.54039C7.32088 6.48346 7.37824 6.41304 7.41992 6.33337C7.47866 6.23164 7.56323 6.14723 7.66509 6.08869C7.76694 6.03016 7.88245 5.99957 7.99992 6.00004C8.17673 6.00004 8.3463 6.07028 8.47133 6.1953C8.59635 6.32033 8.66659 6.4899 8.66659 6.66671C8.66659 6.84352 8.59635 7.01309 8.47133 7.13811C8.3463 7.26314 8.17673 7.33337 7.99992 7.33337C7.82311 7.33337 7.65354 7.40361 7.52852 7.52864C7.40349 7.65366 7.33325 7.82323 7.33325 8.00004V8.66671C7.33325 8.84352 7.40349 9.01309 7.52852 9.13811C7.65354 9.26314 7.82311 9.33337 7.99992 9.33337C8.17673 9.33337 8.3463 9.26314 8.47133 9.13811C8.59635 9.01309 8.66659 8.84352 8.66659 8.66671V8.54671C9.1075 8.38672 9.47816 8.07686 9.71377 7.67129C9.94938 7.26571 10.0349 6.79024 9.95552 6.32797C9.87609 5.8657 9.63672 5.44605 9.27925 5.14238C8.92178 4.83872 8.46895 4.67035 7.99992 4.66671Z" fill="#4D4DFF"/>
</svg>
