<svg width="20" height="20" viewBox="0 0 20 20" fill="none" xmlns="http://www.w3.org/2000/svg">
<path d="M9.99998 1.87219C8.02121 1.87227 6.10703 2.57645 4.59995 3.85873C3.09287 5.14101 2.09123 6.91771 1.77426 8.87093C1.45729 10.8241 1.84566 12.8264 2.8699 14.5195C3.89413 16.2126 5.48739 17.4859 7.36458 18.1118C7.78125 18.1847 7.9375 17.9347 7.9375 17.7159C7.9375 17.518 7.92707 16.8618 7.92707 16.1639C5.83332 16.5493 5.29165 15.6535 5.12498 15.1847C4.94005 14.7288 4.64688 14.3248 4.27082 14.0076C3.97915 13.8514 3.56248 13.4659 4.26039 13.4555C4.52688 13.4845 4.78247 13.5772 5.00551 13.7259C5.22854 13.8746 5.41245 14.0748 5.54165 14.3097C5.65562 14.5144 5.80888 14.6947 5.99264 14.8401C6.1764 14.9855 6.38704 15.0932 6.61251 15.1571C6.83797 15.221 7.07382 15.2397 7.30655 15.2123C7.53927 15.1848 7.76429 15.1117 7.96872 14.9972C8.00479 14.5735 8.1936 14.1774 8.49998 13.8826C6.64582 13.6743 4.70832 12.9555 4.70832 9.76805C4.6966 8.93984 5.00222 8.13853 5.56248 7.52847C5.30772 6.80865 5.33753 6.0187 5.64582 5.32013C5.64582 5.32013 6.34371 5.10138 7.93748 6.1743C9.30105 5.79928 10.7406 5.79928 12.1041 6.1743C13.6979 5.09097 14.3958 5.32013 14.3958 5.32013C14.7041 6.01869 14.734 6.80866 14.4791 7.52847C15.0411 8.13749 15.347 8.93949 15.3333 9.76805C15.3333 12.9659 13.3854 13.6743 11.5312 13.8826C11.7301 14.0842 11.8833 14.3262 11.9803 14.5922C12.0774 14.8582 12.1161 15.142 12.0937 15.4243C12.0937 16.5389 12.0833 17.4347 12.0833 17.716C12.0833 17.9347 12.2396 18.1951 12.6562 18.1118C14.5301 17.4809 16.1188 16.2045 17.1387 14.5106C18.1585 12.8166 18.5432 10.8154 18.224 8.86406C17.9049 6.91273 16.9026 5.13834 15.3962 3.85762C13.8898 2.5769 11.9772 1.87322 9.99998 1.87219Z" fill="white"/>
</svg>
