<svg width="96" height="108" viewBox="0 0 96 108" fill="none" xmlns="http://www.w3.org/2000/svg">
<path d="M0.959961 12.97V85.14C0.965202 85.9267 1.20229 86.6943 1.64154 87.3469C2.08079 87.9995 2.7027 88.5081 3.4295 88.809C4.15631 89.11 4.95573 89.19 5.72775 89.039C6.49978 88.888 7.21013 88.5127 7.76996 87.96L16.85 78.87C17.2843 78.4393 17.629 77.9268 17.8642 77.3621C18.0993 76.7974 18.2203 76.1917 18.22 75.58V35.89L31.58 49.31L33.03 50.7L35.86 47.87L0.959961 12.97Z" fill="#4D4DFF"/>
<path d="M94.52 38.4L85.43 29.32C84.8701 28.7674 84.1598 28.392 83.3878 28.241C82.6157 28.09 81.8163 28.17 81.0895 28.471C80.3627 28.7719 79.7408 29.2805 79.3015 29.9331C78.8623 30.5857 78.6252 31.3533 78.62 32.14V72.4L75.96 75.06L95.96 95.68V41.68C95.9296 40.4399 95.4123 39.2616 94.52 38.4Z" fill="#4D4DFF"/>
<path d="M78.7601 72.2501L60.6701 54.0901C59.9217 53.3426 58.9078 52.9219 57.8501 52.92C57.3247 52.9196 56.8043 53.0228 56.3187 53.2235C55.8331 53.4243 55.3918 53.7187 55.0201 54.0901L48.5101 60.6201C47.7651 61.3695 47.3469 62.3833 47.3469 63.4401C47.3469 64.4968 47.7651 65.5106 48.5101 66.26L89.0701 106.83C89.8159 107.575 90.8258 107.996 91.8801 108C92.4058 108.001 92.9264 107.896 93.4101 107.69C94.1387 107.388 94.7619 106.878 95.2014 106.223C95.6408 105.569 95.877 104.799 95.8801 104.01V89.9301L78.7601 72.2501Z" fill="#4D4DFF"/>
<path d="M48.36 41.74L7.81 1.17001C7.25017 0.617363 6.53982 0.242069 5.76779 0.0910562C4.99577 -0.059957 4.19635 0.0200388 3.46954 0.321006C2.74274 0.621973 2.1208 1.13057 1.68155 1.78316C1.2423 2.43576 1.00524 3.20338 1 3.99001V18.63L30.24 47.87L36.24 53.87C36.9883 54.6175 38.0023 55.0382 39.06 55.04C39.5842 55.0424 40.1037 54.9402 40.5879 54.7393C41.0722 54.5384 41.5114 54.2428 41.88 53.87L48.36 47.4C48.7319 47.0285 49.0269 46.5874 49.2282 46.1018C49.4295 45.6162 49.5331 45.0957 49.5331 44.57C49.5331 44.0444 49.4295 43.5239 49.2282 43.0383C49.0269 42.5527 48.7319 42.1115 48.36 41.74Z" fill="#4D4DFF"/>
</svg>
