<svg width="733" height="108" viewBox="0 0 733 108" fill="none" xmlns="http://www.w3.org/2000/svg">
<path d="M0.959961 12.97V85.14C0.965202 85.9266 1.20229 86.6942 1.64154 87.3468C2.08079 87.9994 2.7027 88.508 3.4295 88.809C4.15631 89.11 4.95573 89.19 5.72775 89.039C6.49978 88.888 7.21013 88.5126 7.76996 87.96L16.85 78.87C17.2843 78.4393 17.629 77.9268 17.8642 77.3621C18.0993 76.7974 18.2203 76.1917 18.22 75.58V35.89L31.58 49.31L33.03 50.7L35.86 47.87L0.959961 12.97Z" fill="#4D4DFF"/>
<path d="M94.52 38.4L85.43 29.32C84.8701 28.7674 84.1598 28.392 83.3878 28.241C82.6157 28.09 81.8163 28.17 81.0895 28.471C80.3627 28.7719 79.7408 29.2805 79.3015 29.9331C78.8623 30.5857 78.6252 31.3533 78.62 32.14V72.4L75.96 75.06L95.96 95.68V41.68C95.9296 40.4399 95.4123 39.2616 94.52 38.4Z" fill="#4D4DFF"/>
<path d="M78.7601 72.25L60.6701 54.09C59.9217 53.3425 58.9078 52.9218 57.8501 52.92C57.3247 52.9196 56.8043 53.0227 56.3187 53.2235C55.8331 53.4242 55.3918 53.7187 55.0201 54.09L48.5101 60.62C47.7651 61.3694 47.3469 62.3833 47.3469 63.44C47.3469 64.4967 47.7651 65.5105 48.5101 66.26L89.0701 106.83C89.8159 107.575 90.8258 107.996 91.8801 108C92.4058 108.001 92.9264 107.896 93.4101 107.69C94.1387 107.388 94.7619 106.878 95.2014 106.223C95.6408 105.569 95.877 104.799 95.8801 104.01V89.93L78.7601 72.25Z" fill="#4D4DFF"/>
<path d="M48.36 41.74L7.81 1.16997C7.25017 0.617332 6.53982 0.242039 5.76779 0.0910257C4.99577 -0.0599876 4.19635 0.0200083 3.46954 0.320976C2.74274 0.621943 2.1208 1.13054 1.68155 1.78313C1.2423 2.43573 1.00524 3.20334 1 3.98998V18.63L30.24 47.87L36.24 53.87C36.9883 54.6175 38.0023 55.0382 39.06 55.04C39.5842 55.0424 40.1037 54.9402 40.5879 54.7393C41.0722 54.5383 41.5114 54.2428 41.88 53.87L48.36 47.4C48.7319 47.0285 49.0269 46.5873 49.2282 46.1017C49.4295 45.6161 49.5331 45.0957 49.5331 44.57C49.5331 44.0443 49.4295 43.5238 49.2282 43.0382C49.0269 42.5526 48.7319 42.1115 48.36 41.74Z" fill="#4D4DFF"/>
<path d="M156.136 86.9831C164.819 86.9831 172.069 82.7682 175.946 76.2771L166.421 70.5448C164.482 74.0011 160.688 76.3614 156.136 76.3614C149.392 76.3614 144.334 71.2192 144.334 64.4752C144.334 57.7313 149.392 52.589 156.136 52.589C160.688 52.589 164.482 54.9494 166.421 58.4057L175.946 52.6733C172.069 46.1823 164.819 41.9673 156.136 41.9673C142.985 41.9673 133.038 51.6617 133.038 64.4752C133.038 77.2887 142.985 86.9831 156.136 86.9831Z" fill="white"/>
<path d="M206.091 42.3045C201.033 42.3045 196.818 44.5806 193.699 48.5427V42.9789H182.74V85.9716H193.699V65.5711C193.699 58.2371 198.251 53.6006 206.091 53.6006H207.946V42.3045H206.091Z" fill="white"/>
<path d="M245.927 42.9789L234.8 72.2308L223.588 42.9789H211.112L228.646 85.2972L226.876 89.0063C225.78 91.451 224.01 92.3783 221.986 92.3783C220.132 92.3783 218.109 91.5353 216.76 90.1022L212.545 98.7007C215.411 101.314 219.963 103 223.841 103C229.489 103 234.547 99.3751 236.907 93.4742L258.151 42.9789H245.927Z" fill="white"/>
<path d="M288.782 41.9673C283.049 41.9673 278.244 44.2434 274.788 48.1212V42.9789H263.829V101.988H274.788V80.8293C278.244 84.7071 283.049 86.9831 288.782 86.9831C300.752 86.9831 309.688 77.2887 309.688 64.4752C309.688 51.6617 300.752 41.9673 288.782 41.9673ZM286.59 76.3614C279.846 76.3614 274.788 71.2192 274.788 64.4752C274.788 57.7313 279.846 52.589 286.59 52.589C293.418 52.589 298.392 57.7313 298.392 64.4752C298.392 71.2192 293.418 76.3614 286.59 76.3614Z" fill="white"/>
<path d="M342.327 53.0105V42.9789H330.778V32.1043H319.82V42.9789H312.991V53.0105H319.82V72.6523C319.82 81.2508 324.456 86.9831 334.319 86.9831C337.522 86.9831 339.967 86.393 342.327 85.1286V74.9284C340.726 75.687 338.871 76.3614 336.679 76.3614C332.802 76.3614 330.778 74.5069 330.778 70.882V53.0105H342.327Z" fill="white"/>
<path d="M369.683 86.9831C382.834 86.9831 392.781 77.2887 392.781 64.4752C392.781 51.6617 382.834 41.9673 369.683 41.9673C356.533 41.9673 346.585 51.6617 346.585 64.4752C346.585 77.2887 356.533 86.9831 369.683 86.9831ZM369.683 76.3614C362.939 76.3614 357.881 71.2192 357.881 64.4752C357.881 57.7313 362.939 52.589 369.683 52.589C376.512 52.589 381.485 57.7313 381.485 64.4752C381.485 71.2192 376.512 76.3614 369.683 76.3614Z" fill="white"/>
<path d="M439.597 27.8051V65.9926L413.127 27.8051H401.325V85.9716H412.958V47.784L439.428 85.9716H451.23V27.8051H439.597Z" fill="white"/>
<path d="M494.933 42.9789V48.1212C491.477 44.3277 486.672 41.9673 480.939 41.9673C468.969 41.9673 459.949 51.6617 459.949 64.4752C459.949 77.2887 468.969 86.9831 480.939 86.9831C486.672 86.9831 491.477 84.6228 494.933 80.8293V85.9716H505.892V42.9789H494.933ZM483.047 76.3614C476.303 76.3614 471.245 71.2192 471.245 64.4752C471.245 57.7313 476.303 52.589 483.047 52.589C489.875 52.589 494.933 57.7313 494.933 64.4752C494.933 71.2192 489.875 76.3614 483.047 76.3614Z" fill="white"/>
<path d="M516.315 85.9716H527.274V25.2761H516.315V85.9716Z" fill="white"/>
<path d="M567.73 42.9789L556.602 72.2308L545.391 42.9789H532.914L550.449 85.2972L548.678 89.0063C547.582 91.451 545.812 92.3783 543.789 92.3783C541.934 92.3783 539.911 91.5353 538.562 90.1022L534.347 98.7007C537.214 101.314 541.766 103 545.643 103C551.292 103 556.349 99.3751 558.71 93.4742L579.953 42.9789H567.73Z" fill="white"/>
<path d="M612.842 53.0105V42.9789H601.293V32.1043H590.335V42.9789H583.506V53.0105H590.335V72.6523C590.335 81.2508 594.971 86.9831 604.834 86.9831C608.037 86.9831 610.482 86.393 612.842 85.1286V74.9284C611.241 75.687 609.386 76.3614 607.194 76.3614C603.317 76.3614 601.293 74.5069 601.293 70.882V53.0105H612.842Z" fill="white"/>
<path d="M626.428 36.6565C630.306 36.6565 633.34 33.706 633.34 29.8282C633.34 25.9505 630.306 23 626.428 23C622.55 23 619.515 25.9505 619.515 29.8282C619.515 33.706 622.55 36.6565 626.428 36.6565ZM620.948 85.9716H631.907V42.9789H620.948V85.9716Z" fill="white"/>
<path d="M662.837 86.9831C671.52 86.9831 678.77 82.7682 682.648 76.2771L673.122 70.5448C671.183 74.0011 667.389 76.3614 662.837 76.3614C656.093 76.3614 651.035 71.2192 651.035 64.4752C651.035 57.7313 656.093 52.589 662.837 52.589C667.389 52.589 671.183 54.9494 673.122 58.4057L682.648 52.6733C678.77 46.1823 671.52 41.9673 662.837 41.9673C649.687 41.9673 639.739 51.6617 639.739 64.4752C639.739 77.2887 649.687 86.9831 662.837 86.9831Z" fill="white"/>
<path d="M721.322 42.9789V48.1212C717.866 44.3277 713.061 41.9673 707.329 41.9673C695.358 41.9673 686.338 51.6617 686.338 64.4752C686.338 77.2887 695.358 86.9831 707.329 86.9831C713.061 86.9831 717.866 84.6228 721.322 80.8293V85.9716H732.281V42.9789H721.322ZM709.436 76.3614C702.692 76.3614 697.634 71.2192 697.634 64.4752C697.634 57.7313 702.692 52.589 709.436 52.589C716.265 52.589 721.322 57.7313 721.322 64.4752C721.322 71.2192 716.265 76.3614 709.436 76.3614Z" fill="white"/>
</svg>
