<svg width="20" height="20" viewBox="0 0 20 20" fill="none" xmlns="http://www.w3.org/2000/svg">
<path d="M18.3333 4.83339C17.7069 5.10513 17.0445 5.28477 16.3666 5.36672C17.0818 4.93949 17.6177 4.26737 17.875 3.47505C17.2029 3.87511 16.4673 4.15697 15.7 4.30839C15.1871 3.7522 14.5041 3.38197 13.7581 3.25576C13.0122 3.12956 12.2454 3.25452 11.5781 3.61104C10.9108 3.96757 10.3807 4.5355 10.071 5.22575C9.76125 5.916 9.68937 6.68954 9.86663 7.42505C8.50782 7.35632 7.17866 7.00251 5.96551 6.3866C4.75235 5.77069 3.68233 4.90646 2.82496 3.85005C2.52424 4.37519 2.36623 4.9699 2.36663 5.57505C2.36556 6.13704 2.50347 6.69057 2.76809 7.18636C3.0327 7.68215 3.41581 8.10481 3.88329 8.41672C3.33994 8.40194 2.8082 8.25613 2.33329 7.99172V8.03339C2.33737 8.8208 2.61329 9.58263 3.11439 10.19C3.61549 10.7974 4.31101 11.2131 5.08329 11.3667C4.78601 11.4572 4.47736 11.5049 4.16663 11.5084C3.95153 11.5059 3.73698 11.4864 3.52496 11.4501C3.74488 12.1274 4.17048 12.7193 4.74252 13.1435C5.31457 13.5677 6.00461 13.803 6.71663 13.8167C5.5143 14.7628 4.02986 15.2791 2.49996 15.2834C2.22141 15.2843 1.94307 15.2676 1.66663 15.2334C3.22865 16.2419 5.04897 16.7773 6.90829 16.7751C8.19137 16.7884 9.46424 16.5459 10.6526 16.0618C11.8409 15.5777 12.9208 14.8616 13.8293 13.9555C14.7378 13.0493 15.4566 11.9712 15.9438 10.7841C16.4309 9.59707 16.6767 8.32483 16.6666 7.04172C16.6666 6.90005 16.6666 6.75005 16.6666 6.60005C17.3205 6.11239 17.8845 5.51457 18.3333 4.83339Z" fill="white"/>
</svg>
