<svg width="25" height="24" viewBox="0 0 25 24" fill="none" xmlns="http://www.w3.org/2000/svg">
<path d="M21.4999 11C21.2347 11 20.9804 11.1054 20.7928 11.2929C20.6053 11.4804 20.4999 11.7348 20.4999 12V14.59L14.2099 8.29C14.117 8.19627 14.0064 8.12188 13.8845 8.07111C13.7627 8.02034 13.632 7.9942 13.4999 7.9942C13.3679 7.9942 13.2372 8.02034 13.1154 8.07111C12.9935 8.12188 12.8829 8.19627 12.7899 8.29L9.49994 11.59L4.20994 6.29C4.02164 6.1017 3.76624 5.99591 3.49994 5.99591C3.23364 5.99591 2.97824 6.1017 2.78994 6.29C2.60164 6.47831 2.49585 6.7337 2.49585 7C2.49585 7.2663 2.60164 7.5217 2.78994 7.71L8.78994 13.71C8.8829 13.8037 8.99351 13.8781 9.11536 13.9289C9.23722 13.9797 9.36793 14.0058 9.49994 14.0058C9.63195 14.0058 9.76266 13.9797 9.88452 13.9289C10.0064 13.8781 10.117 13.8037 10.2099 13.71L13.4999 10.41L19.0899 16H16.4999C16.2347 16 15.9804 16.1054 15.7928 16.2929C15.6053 16.4804 15.4999 16.7348 15.4999 17C15.4999 17.2652 15.6053 17.5196 15.7928 17.7071C15.9804 17.8946 16.2347 18 16.4999 18H21.4999C21.6306 17.9984 21.7597 17.9712 21.8799 17.92C22.1243 17.8185 22.3185 17.6244 22.4199 17.38C22.4712 17.2598 22.4984 17.1307 22.4999 17V12C22.4999 11.7348 22.3946 11.4804 22.207 11.2929C22.0195 11.1054 21.7652 11 21.4999 11Z" fill="#E55758"/>
</svg>
