<svg width="18" height="18" viewBox="0 0 18 18" fill="none" xmlns="http://www.w3.org/2000/svg">
<path d="M8.4083 11.7417C8.37246 11.7813 8.33906 11.823 8.3083 11.8667C8.27676 11.9131 8.25154 11.9636 8.2333 12.0167C8.20927 12.0639 8.19242 12.1145 8.1833 12.1667C8.17921 12.2222 8.17921 12.2779 8.1833 12.3334C8.18048 12.4427 8.20331 12.5511 8.24996 12.65C8.28739 12.7534 8.3471 12.8474 8.42487 12.9251C8.50263 13.0029 8.59655 13.0626 8.69996 13.1C8.79971 13.1441 8.90757 13.1669 9.01663 13.1669C9.12569 13.1669 9.23355 13.1441 9.3333 13.1C9.43671 13.0626 9.53063 13.0029 9.60839 12.9251C9.68616 12.8474 9.74587 12.7534 9.7833 12.65C9.8203 12.5487 9.83728 12.4412 9.8333 12.3334C9.83393 12.2237 9.81291 12.115 9.77144 12.0134C9.72997 11.9119 9.66886 11.8196 9.59163 11.7417C9.51416 11.6636 9.42199 11.6016 9.32044 11.5593C9.21889 11.517 9.10997 11.4952 8.99996 11.4952C8.88995 11.4952 8.78103 11.517 8.67948 11.5593C8.57793 11.6016 8.48577 11.6636 8.4083 11.7417ZM8.99996 0.666687C7.35179 0.666687 5.74062 1.15543 4.37021 2.07111C2.9998 2.98679 1.9317 4.28827 1.30097 5.81099C0.670237 7.33371 0.505209 9.00926 0.826752 10.6258C1.1483 12.2423 1.94197 13.7271 3.10741 14.8926C4.27284 16.058 5.7577 16.8517 7.37421 17.1732C8.99072 17.4948 10.6663 17.3297 12.189 16.699C13.7117 16.0683 15.0132 15.0002 15.9289 13.6298C16.8446 12.2594 17.3333 10.6482 17.3333 9.00002C17.3333 7.90567 17.1177 6.82204 16.699 5.81099C16.2802 4.79994 15.6663 3.88129 14.8925 3.10746C14.1187 2.33364 13.2 1.71981 12.189 1.30102C11.1779 0.882235 10.0943 0.666687 8.99996 0.666687ZM8.99996 15.6667C7.68142 15.6667 6.39249 15.2757 5.29616 14.5432C4.19983 13.8106 3.34535 12.7694 2.84077 11.5512C2.33618 10.3331 2.20416 8.99263 2.46139 7.69942C2.71863 6.40621 3.35357 5.21833 4.28592 4.28598C5.21827 3.35363 6.40615 2.71869 7.69936 2.46145C8.99257 2.20422 10.333 2.33624 11.5512 2.84082C12.7694 3.34541 13.8105 4.19989 14.5431 5.29622C15.2756 6.39255 15.6666 7.68148 15.6666 9.00002C15.6666 10.7681 14.9643 12.4638 13.714 13.7141C12.4638 14.9643 10.7681 15.6667 8.99996 15.6667ZM8.99996 4.83335C8.56085 4.83307 8.12941 4.94845 7.74905 5.16789C7.3687 5.38732 7.05285 5.70307 6.8333 6.08335C6.773 6.1782 6.73252 6.28427 6.71427 6.39517C6.69603 6.50607 6.70041 6.61951 6.72715 6.72868C6.75389 6.83784 6.80244 6.94047 6.86987 7.03038C6.9373 7.1203 7.02222 7.19565 7.11952 7.25189C7.21683 7.30814 7.3245 7.34412 7.43607 7.35767C7.54764 7.37122 7.6608 7.36207 7.76874 7.33075C7.87668 7.29944 7.97717 7.24661 8.06417 7.17545C8.15116 7.1043 8.22287 7.01627 8.27496 6.91669C8.34838 6.78952 8.4541 6.68401 8.58142 6.61084C8.70873 6.53767 8.85312 6.49944 8.99996 6.50002C9.22098 6.50002 9.43294 6.58782 9.58922 6.7441C9.7455 6.90038 9.8333 7.11234 9.8333 7.33335C9.8333 7.55437 9.7455 7.76633 9.58922 7.92261C9.43294 8.07889 9.22098 8.16669 8.99996 8.16669C8.77895 8.16669 8.56699 8.25449 8.41071 8.41077C8.25443 8.56705 8.16663 8.77901 8.16663 9.00002V9.83335C8.16663 10.0544 8.25443 10.2663 8.41071 10.4226C8.56699 10.5789 8.77895 10.6667 8.99996 10.6667C9.22098 10.6667 9.43294 10.5789 9.58922 10.4226C9.7455 10.2663 9.8333 10.0544 9.8333 9.83335V9.68335C10.3844 9.48337 10.8478 9.09604 11.1423 8.58908C11.4368 8.08211 11.5437 7.48776 11.4445 6.90993C11.3452 6.33209 11.046 5.80754 10.5991 5.42795C10.1523 5.04836 9.58625 4.8379 8.99996 4.83335Z" fill="#A9A9B1"/>
</svg>
