<svg width="30" height="32" viewBox="0 0 30 32" fill="none" xmlns="http://www.w3.org/2000/svg">
<g clip-path="url(#clip0_119_24297)">
<path d="M1.06226 3.84302V25.2267C1.06381 25.4598 1.13406 25.6872 1.26421 25.8806C1.39435 26.074 1.57862 26.2247 1.79397 26.3138C2.00932 26.403 2.24619 26.4267 2.47493 26.382C2.70368 26.3372 2.91416 26.226 3.08003 26.0623L5.77041 23.3689C5.89911 23.2413 6.00124 23.0895 6.07092 22.9222C6.14059 22.7548 6.17642 22.5754 6.17633 22.3941V10.6341L10.1348 14.6104L10.5645 15.0223L11.403 14.1838L1.06226 3.84302Z" fill="#101019"/>
<path d="M28.7838 11.3778L26.0905 8.68744C25.9246 8.5237 25.7141 8.41249 25.4854 8.36775C25.2566 8.323 25.0198 8.3467 24.8044 8.43588C24.5891 8.52505 24.4048 8.67575 24.2746 8.86911C24.1445 9.06247 24.0742 9.28991 24.0727 9.52299V21.4519L23.2845 22.24L29.2105 28.3497V12.3497C29.2015 11.9822 29.0482 11.6331 28.7838 11.3778Z" fill="#101019"/>
<path d="M24.1141 21.4073L18.7541 16.0266C18.5324 15.8051 18.232 15.6805 17.9186 15.6799C17.7629 15.6798 17.6087 15.7104 17.4648 15.7698C17.3209 15.8293 17.1902 15.9166 17.08 16.0266L15.1512 17.9614C14.9304 18.1835 14.8065 18.4839 14.8065 18.797C14.8065 19.1101 14.9304 19.4105 15.1512 19.6325L27.1689 31.6533C27.3899 31.874 27.6892 31.9986 28.0015 31.9999C28.1573 32.0003 28.3115 31.9691 28.4549 31.9081C28.6708 31.8187 28.8554 31.6675 28.9856 31.4735C29.1158 31.2795 29.1858 31.0514 29.1867 30.8177V26.6459L24.1141 21.4073Z" fill="#101019"/>
<path d="M15.1067 12.3674L3.09187 0.346614C2.926 0.182868 2.71552 0.07167 2.48678 0.0269254C2.25803 -0.0178193 2.02116 0.00588316 1.80581 0.0950587C1.59046 0.184234 1.40619 0.334928 1.27604 0.528291C1.14589 0.721653 1.07565 0.949094 1.0741 1.18217V5.51995L9.7378 14.1837L11.5156 15.9614C11.7373 16.1829 12.0377 16.3076 12.3511 16.3081C12.5065 16.3088 12.6604 16.2785 12.8039 16.219C12.9473 16.1595 13.0775 16.0719 13.1867 15.9614L15.1067 14.0444C15.2169 13.9343 15.3043 13.8036 15.3639 13.6597C15.4236 13.5159 15.4543 13.3616 15.4543 13.2059C15.4543 13.0501 15.4236 12.8959 15.3639 12.752C15.3043 12.6081 15.2169 12.4774 15.1067 12.3674Z" fill="#101019"/>
</g>
<defs>
<clipPath id="clip0_119_24297">
<rect width="28.4444" height="32" fill="white" transform="translate(0.777832)"/>
</clipPath>
</defs>
</svg>
